<svg width="37" height="32" viewBox="0 0 37 32" fill="none" xmlns="http://www.w3.org/2000/svg">
<path d="M7.63399 22.2706L6.46742 31.9999H-0.743286L-0.504255 30.3866C-0.417245 29.3253 -0.151488 28.3063 0.266536 27.3562C0.975177 25.7723 2.14585 24.4831 3.58289 23.5982V23.5957C3.65648 23.5488 3.73056 23.5087 3.80415 23.4639C4.95915 22.7982 6.2663 22.3824 7.63399 22.2706Z" fill="#186BE7"/>
<path d="M37.3182 31.9999H30.0871L28.8446 21.6204C29.6652 21.6876 30.4671 21.8641 31.2246 22.1409C33.4125 22.932 35.2515 24.5366 36.2124 26.7105C36.6305 27.6537 36.894 28.6749 36.9832 29.7365L37.3182 31.9999Z" fill="#186BE7"/>
<path d="M32.4754 22.7939L31.2426 32H4.68668L3.58289 23.5983V23.5958C3.65647 23.5488 3.73056 23.5088 3.80414 23.4639C5.47027 22.4814 9.25276 21.3511 11.9548 20.6179C13.8612 20.1009 15.8278 19.8446 17.8037 19.8536L19.9046 19.8635C21.3715 19.8701 22.833 20.0239 24.2697 20.3217C26.5945 20.803 30.0439 21.5756 31.224 22.1411C31.6759 22.3531 32.0936 22.5725 32.4754 22.7939Z" fill="#24BAEC"/>
<path d="M24.429 10.8822C24.429 10.8822 25.0246 12.5151 22.3618 13.464L22.547 26.8101L14.6483 23.2696L15.3492 15.5549L18.3796 14.2526L19.1021 12.9473C19.1021 12.9473 20.1511 11.5939 20.2779 11.4607C20.4044 11.3273 21.5267 10.34 21.5267 10.34L23.9387 11.0677L24.429 10.8822Z" fill="#FAB9C9"/>
<path d="M21.0019 14.8336C21.4973 12.8703 20.2171 12.9432 18.7807 13.5297L18.3806 14.2525L15.5688 15.4608L15.2709 16.5074L14.993 19.8484C14.9929 19.8484 19.9895 18.8465 21.0019 14.8336Z" fill="#1B1E28"/>
<path d="M13.1615 9.79402C13.1615 9.79402 10.9702 8.80085 11.7399 6.54777C12.5094 4.29469 12.5286 4.29481 12.3689 3.23278C12.2089 2.17088 12.6173 -0.472761 15.719 0.267949C18.821 1.00878 19.241 1.08883 20.8241 0.427676C22.4072 -0.233482 24.5913 1.20916 24.2506 4.71532C23.9612 7.69544 23.3295 6.8712 23.9299 8.46722C24.5305 10.0631 24.1772 10.462 23.1248 10.7136C20.6863 11.2963 19.502 10.1344 19.502 10.0795C19.502 10.0247 19.0211 8.80259 18.7205 8.64237C18.42 8.48202 15.6749 7.7208 15.615 7.80085C15.5548 7.8809 14.6488 9.13808 14.6488 9.13808L13.1615 9.79402Z" fill="#1B1E28"/>
<path d="M11.9096 10.1247C12.8002 10.1731 13.7034 10.1295 14.5956 10.1213C14.6653 10.1207 14.6656 10.0121 14.5956 10.0127C13.7034 10.0198 12.7996 9.99105 11.9096 10.0547C11.8647 10.0577 11.8643 10.1226 11.9096 10.1247Z" fill="#1B1E28"/>
<path d="M13.1667 6.71843V13.6001C13.1667 13.6001 12.9517 16.8677 15.4047 16.9988C17.8576 17.1298 19.3367 17.0082 20.1327 16.1373C20.9285 15.2666 21.6775 13.7124 21.1154 9.58344C20.5538 5.45428 19.9642 4.75236 19.9642 4.75236L16.9025 3.82532L14.0091 4.33085L13.1667 6.71843Z" fill="#FAB9C9"/>
<path d="M13.1629 13.8916C13.178 14.695 13.4021 16.892 15.4047 16.9987C17.8577 17.1298 19.3367 17.0082 20.1327 16.1373C20.7252 15.4891 21.291 14.4613 21.3103 12.2753C21.3066 11.5647 21.2476 10.7378 21.1156 9.76691C21.0387 9.19985 20.9702 8.68487 20.909 8.21501C20.4184 5.29344 19.9643 4.75248 19.9643 4.75248L16.9027 3.82544L14.0093 4.33097L13.2057 6.60842L13.1668 6.90189V6.972C13.1668 6.972 13.3142 6.59288 13.9253 6.61401C14.5363 6.63502 14.4729 6.34701 15.1892 5.55347C15.9056 4.76018 16.2567 5.76416 16.8226 6.23464C17.3886 6.70512 18.1877 6.08014 19.1145 6.05205C20.0416 6.02383 19.8588 7.13347 19.6835 7.43552C19.5078 7.73745 19.3463 8.16579 19.9084 8.36952C20.47 8.573 20.6664 8.66423 20.737 10.0405C20.807 11.4169 20.4349 12.3931 19.7255 12.8563C19.0164 13.3199 17.5207 13.2145 16.4813 12.4211C15.442 11.6276 14.3147 12.3897 13.7709 12.6247C13.4836 12.7486 13.2049 12.588 13.1669 12.5646V13.6V13.7833C13.1668 13.7836 13.1643 13.8235 13.1629 13.8916Z" fill="#E5A0B1"/>
<path d="M15.2856 8.50091C15.1742 9.38445 15.0416 10.3821 15.1587 11.2665C15.2017 11.5914 15.3935 11.8428 15.8321 11.7513C15.9443 11.7278 15.8965 11.5937 15.7845 11.6119C15.0953 11.7247 15.3325 10.2959 15.339 10.0451C15.3531 9.53037 15.3779 9.01589 15.3724 8.50091C15.3717 8.45505 15.2909 8.45679 15.2856 8.50091Z" fill="#EAAABA"/>
<path d="M16.7237 10.8207C16.9217 10.8207 17.0823 10.6602 17.0823 10.4621C17.0823 10.2641 16.9217 10.1035 16.7237 10.1035C16.5256 10.1035 16.3651 10.2641 16.3651 10.4621C16.3651 10.6602 16.5256 10.8207 16.7237 10.8207Z" fill="#1B1E28"/>
<path d="M14.001 10.8207C14.1991 10.8207 14.3596 10.6602 14.3596 10.4621C14.3596 10.2641 14.1991 10.1035 14.001 10.1035C13.803 10.1035 13.6424 10.2641 13.6424 10.4621C13.6424 10.6602 13.803 10.8207 14.001 10.8207Z" fill="#1B1E28"/>
<path d="M13.3404 9.21277C13.5509 9.12812 13.7253 9.00917 13.9581 8.9807C14.2154 8.94851 14.4216 9.02321 14.6598 9.10401C14.7586 9.13732 14.7974 9.00121 14.7258 8.94776C14.3449 8.66349 13.5515 8.7096 13.2728 9.12464C13.245 9.16566 13.2918 9.23254 13.3404 9.21277Z" fill="#1B1E28"/>
<path d="M16.4112 9.10144C16.6321 9.0158 16.8063 8.92021 17.0536 8.93152C17.301 8.94308 17.5025 9.04526 17.7305 9.12593C17.8298 9.16123 17.8667 9.02351 17.7962 8.96968C17.4362 8.69473 16.6362 8.5851 16.3434 9.01331C16.3148 9.05446 16.3626 9.12021 16.4112 9.10144Z" fill="#1B1E28"/>
<path d="M18.5715 11.1471C18.6986 11.4599 18.4571 11.8533 18.0318 12.0262C17.6064 12.1993 17.1588 12.0859 17.0318 11.7732C16.9046 11.4611 17.1464 11.0676 17.5717 10.8944C17.9968 10.7219 18.4447 10.8348 18.5715 11.1471Z" fill="#EAAABA"/>
<path d="M13.7359 10.9633C13.5416 10.8762 13.3409 10.8497 13.1659 10.8757V12.0723C13.1853 12.0825 13.2049 12.0925 13.2254 12.1017C13.6529 12.2935 14.1142 12.1944 14.255 11.8798C14.3959 11.5658 14.1634 11.1556 13.7359 10.9633Z" fill="#EAAABA"/>
<path d="M14.9953 9.86696C15.0691 10.6332 14.6489 11.3761 13.8751 11.5801C13.0027 11.81 12.1154 11.2108 11.9806 10.3295C11.8543 9.5009 12.4288 8.72488 13.2562 8.59822C14.1141 8.46746 14.8272 9.05577 14.9967 9.87828C15.0078 9.9316 15.0889 9.90885 15.0777 9.85603C14.9012 8.99884 14.1384 8.36503 13.2379 8.50723C12.3698 8.64446 11.7613 9.47194 11.8888 10.3415C12.0159 11.2095 12.8536 11.824 13.7183 11.6971C14.62 11.5649 15.1636 10.7409 15.0796 9.86672C15.0743 9.81364 14.9902 9.81327 14.9953 9.86696Z" fill="#1B1E28"/>
<path d="M18.8591 10.1392C18.8145 10.9675 18.1932 11.6682 17.3301 11.6682C16.5012 11.6682 15.8008 10.9675 15.8008 10.1392C15.8008 9.3674 16.4053 8.70649 17.1666 8.62718C18.0898 8.5316 18.8109 9.23788 18.8591 10.1392C18.8619 10.193 18.9462 10.1934 18.9434 10.1392C18.896 9.26274 18.2449 8.52588 17.3301 8.52588C16.4546 8.52588 15.7124 9.26075 15.7166 10.1392C15.7207 10.9864 16.3969 11.7031 17.2444 11.7475C18.1922 11.7974 18.8943 11.0492 18.9434 10.1392C18.9463 10.0849 18.8621 10.0849 18.8591 10.1392Z" fill="#1B1E28"/>
<path d="M15.0068 10.0464C15.2382 10.0874 15.5157 10.0896 15.7485 10.0569C15.7811 10.0524 15.7811 9.99608 15.7485 9.99148C15.5157 9.95929 15.2387 9.96103 15.0068 10.002C14.9845 10.0058 14.9845 10.0423 15.0068 10.0464Z" fill="#1B1E28"/>
<path d="M18.8334 10.0748C19.7241 10.1232 20.6273 10.0796 21.5194 10.0715C21.5891 10.0709 21.5894 9.9621 21.5194 9.9626C20.6272 9.9698 19.7234 9.94109 18.8334 10.0046C18.7885 10.0078 18.7882 10.0724 18.8334 10.0748Z" fill="#1B1E28"/>
<path d="M24.4234 10.8821C23.7575 9.18493 21.2069 10.3399 21.2069 10.3399L20.9998 12L22.2569 11.5201C22.302 11.6327 23.4739 11.6552 23.4739 11.6552L24.4234 10.8821Z" fill="#FAB9C9"/>
<path d="M22.197 10.4214C22.8962 10.3144 23.5714 10.9269 23.492 11.6414C23.4798 11.7538 23.3022 11.755 23.3142 11.6414C23.3795 11.0541 22.8403 10.5014 22.2441 10.5925C22.1323 10.6098 22.0842 10.4388 22.197 10.4214Z" fill="#E6A0B1"/>
<path d="M23.165 10.9429C22.872 11.0709 22.6528 11.3074 22.557 11.6139C22.5235 11.723 22.352 11.6764 22.3861 11.5668C22.4939 11.2195 22.7409 10.9356 23.0754 10.7895C23.1794 10.7443 23.2699 10.8972 23.165 10.9429Z" fill="#E6A0B1"/>
<path d="M14.1883 0.95269C13.1626 1.64604 12.9526 2.9645 13.4262 4.05922C13.4415 4.09477 13.4932 4.06395 13.4782 4.02889C13.0184 2.96662 13.2206 1.67911 14.2186 1.00452C14.2507 0.982895 14.2204 0.930689 14.1883 0.95269Z" fill="white"/>
<path d="M12.4036 8.3569C12.4895 8.5303 12.5682 8.70557 12.6741 8.86791C12.6952 8.90022 12.7474 8.87014 12.7261 8.83758C12.6199 8.67511 12.5414 8.49985 12.4556 8.3267C12.4384 8.29202 12.3865 8.32247 12.4036 8.3569Z" fill="white"/>
<path d="M19.994 6.43842C19.994 6.50529 19.994 6.57192 19.994 6.63879C19.994 6.67745 20.0541 6.67745 20.0541 6.63879C20.0541 6.57192 20.0541 6.50529 20.0541 6.43842C20.0541 6.39976 19.994 6.39976 19.994 6.43842Z" fill="white"/>
<path d="M19.9167 7.30487C19.8986 7.32948 19.8948 7.36043 19.8767 7.38504C19.8536 7.41624 19.9058 7.44607 19.9286 7.41537C19.947 7.39076 19.9508 7.35981 19.9687 7.3352C19.9917 7.304 19.9395 7.27392 19.9167 7.30487Z" fill="white"/>
<path d="M23.398 7.17985C23.3271 7.85493 23.3407 8.39527 23.5995 9.03107C23.614 9.0665 23.6721 9.05121 23.6575 9.01529C23.4031 8.38993 23.3885 7.84151 23.4581 7.17985C23.4624 7.1412 23.4019 7.14157 23.398 7.17985Z" fill="white"/>
<path d="M15.4046 16.9987C17.8575 17.1297 19.3366 17.0082 20.1326 16.1373C20.9284 15.2666 21.6774 13.7123 21.1153 9.58342C20.5538 5.45426 20.439 3.9839 20.439 3.9839L18.305 2.82666L13.6435 3.1123L13.1667 6.71828V6.78838C13.1667 6.78838 13.3141 6.40939 13.9252 6.43027C14.5362 6.45141 14.4728 6.1634 15.189 5.36999C15.9055 4.5767 16.2565 5.58068 16.8225 6.05116C17.3884 6.52151 18.1876 5.89665 19.1143 5.86856C20.0415 5.84034 19.8587 6.94985 19.6834 7.2519C19.5076 7.55396 19.3462 7.98217 19.9083 8.1859C20.4699 8.38951 20.6663 8.48062 20.7369 9.85688C20.8068 11.2333 20.4348 12.2095 19.7254 12.6728C19.0163 13.1363 17.5206 13.031 16.4812 12.2375C15.4419 11.4441 14.3146 12.2062 13.7708 12.4412C13.4835 12.565 13.2048 12.4044 13.1668 12.3811V13.6C13.1667 13.6001 12.9516 16.8677 15.4046 16.9987Z" fill="#1B1E28"/>
<path d="M12.8795 4.67534C12.9014 5.30629 12.5165 5.81854 12.2785 6.37665C12.1102 6.77106 12.0862 7.19865 12.0981 7.62053C12.0991 7.65919 12.1593 7.65944 12.1582 7.62053C12.14 6.97864 12.2867 6.47721 12.5669 5.90505C12.7689 5.49287 12.9558 5.14508 12.9395 4.67534C12.9383 4.63668 12.8781 4.63656 12.8795 4.67534Z" fill="white"/>
<path d="M19.9757 1.7791C20.6838 1.88737 21.4076 1.73783 22.1051 1.93585C23.4617 2.32056 23.1456 4.33486 22.7228 5.28141C22.707 5.31646 22.7589 5.34692 22.7745 5.31162C23.1968 4.36655 23.3671 3.13958 22.7067 2.25878C22.125 1.48314 20.7997 1.84461 19.9917 1.72118C19.9539 1.71534 19.9374 1.77326 19.9757 1.7791Z" fill="white"/>
<path d="M16.5467 4.95581C16.6074 6.76962 18.8812 4.75457 19.6613 5.65836C19.6866 5.68757 19.7291 5.64506 19.7038 5.61573C18.9071 4.69242 16.6638 6.65837 16.607 4.95569C16.6058 4.91716 16.5456 4.91703 16.5467 4.95581Z" fill="white"/>
<path d="M15.3148 17.0424C16.3214 17.049 17.3437 17.1711 18.3457 17.0244C19.4246 16.8664 20.1585 16.4469 20.7205 15.5096C20.7403 15.4763 20.6884 15.4463 20.6685 15.4794C20.0518 16.5073 19.1953 16.8864 18.0283 16.9986C17.1267 17.0853 16.2175 16.9881 15.3148 16.9822C15.2763 16.982 15.2763 17.0422 15.3148 17.0424Z" fill="white"/>
<path d="M15.1704 13.1415C15.4229 13.7047 16.4654 13.478 16.4664 12.8629C16.4664 12.7973 16.3763 12.7729 16.3431 12.8296C16.2256 13.0299 16.1487 13.2181 15.8978 13.2827C15.6352 13.3506 15.4434 13.2116 15.2416 13.07C15.1942 13.0368 15.1515 13.0992 15.1704 13.1415Z" fill="white"/>
<path d="M14.8544 21.4863C17.0396 24.0453 19.4232 23.7114 21.9364 21.4863L21.9367 31.9998H14.8545V21.4863H14.8544Z" fill="#E3EEF1"/>
<path d="M15.046 18.8306L10.08 20.535C12.3678 24.4608 13.5784 28.271 13.568 31.9508H15.7876C16.9248 27.9805 16.5359 23.5659 15.046 18.8306Z" fill="#186BE7"/>
<path d="M22.3803 18.8306L27.3465 20.535C25.0584 24.4608 23.8479 28.271 23.8582 31.9508H21.6386C20.5017 27.9805 20.8906 23.5659 22.3803 18.8306Z" fill="#186BE7"/>
</svg>
